# xmcd CD database file
#
# Track frame offsets:
#	150
#	11712
#	22737
#	37830
#	58177
#	71037
#	83825
#	96162
#	109297
#	121475
#
# Disc length: 1843 seconds
#
# Revision: 0
# Processed by: cddbd v1.4PL0 Copyright (c) Steve Scherf et al.
# Submitted via: CDex 1.40Release
#
DISCID=7d07310a
DTITLE=Conway Twitty and Patsy Cline - Back to Back
DYEAR=1997
DGENRE=Country
TTITLE0=I Love You More Today
TTITLE1=Hello Darlin'
TTITLE2=I'd Just Love to Lay You Down
TTITLE3=Rest Your Love on Me
TTITLE4=Tight Fittin' Jeans
TTITLE5=I Fall to Pieces
TTITLE6=Crazy
TTITLE7=Imagine That
TTITLE8=Always
TTITLE9=Faded Love
EXTD=YEAR: 1997 ID3G: 2
EXTT0=
EXTT1=
EXTT2=
EXTT3=
EXTT4=
EXTT5=
EXTT6=
EXTT7=
EXTT8=
EXTT9=
PLAYORDER=
